<svg width="161" height="121" viewBox="0 0 161 121" fill="none" xmlns="http://www.w3.org/2000/svg">
<path opacity="0.2" d="M9.47059 0H161L151.529 121H0L9.47059 0Z" fill="url(#paint0_radial_351_1980)"/>
<path d="M47 69.0005L36 67.0005V57.0005L47 59.0005V69.0005Z" fill="#FF5146"/>
<path d="M81 69.0005L92 67.0005V57.0005L81 59.0005V69.0005Z" fill="#FF5146"/>
<path opacity="0.5" d="M90.093 41.1148L94 51.4005L78.5 55.0005L73 37.0005L90.093 41.1148Z" fill="#FF5146"/>
<path opacity="0.5" d="M38.907 41.1148L35 51.4005L50.5 55.0005L56 37.0005L38.907 41.1148Z" fill="#FF5146"/>
<path fill-rule="evenodd" clip-rule="evenodd" d="M65 7.47656C62.3076 7.47656 60.0404 9.48956 59.7217 12.163L57.5951 30.0005H57.5181L57.0867 31.4182L50.7465 52.25L29.3869 48.0383L27 47.5676V50.0005V59.5005V61.1676L28.6398 61.4678L63.8455 67.9139L63.8554 67.9687L64.001 67.9424L64.1398 67.9678L64.1493 67.9156L99.8554 61.4687L101.5 61.1717V59.5005V50.0005V47.5742L99.1183 48.0373L79.1529 51.9194L72.9134 31.4182L72.4819 30.0005H72.4613L70.2844 12.1554C69.9585 9.48444 67.6908 7.47656 65 7.47656ZM67.4243 30.0005L65.3212 12.7609C65.3014 12.5986 65.1636 12.4766 65 12.4766C64.8401 12.4766 64.7054 12.5961 64.6865 12.7549L62.6305 30.0005H64H66H67.4243ZM69.5181 34.0005L75.2053 52.687L64.0062 54.8646L54.691 53.0278L60.4819 34.0005H64H66H69.5181ZM64.006 63.8768L97.5 57.8293V52.4268L64.1221 58.917L64.1131 58.9627L64.0008 58.9406L63.8817 58.9637L63.8723 58.9152L31 52.4334V57.8335L64.006 63.8768Z" fill="#FF5146"/>
<defs>
<radialGradient id="paint0_radial_351_1980" cx="0" cy="0" r="1" gradientUnits="userSpaceOnUse" gradientTransform="translate(80.2632 58.2866) rotate(89.7837) scale(62.7139 77.7885)">
<stop stop-color="#E44A42"/>
<stop offset="1" stop-color="#E44A42" stop-opacity="0"/>
</radialGradient>
</defs>
</svg>
