<svg width="161" height="121" viewBox="0 0 161 121" fill="none" xmlns="http://www.w3.org/2000/svg">
<path opacity="0.2" d="M9.47059 0H161L151.529 121H0L9.47059 0Z" fill="url(#paint0_radial_351_2002)"/>
<path opacity="0.4" fill-rule="evenodd" clip-rule="evenodd" d="M43.4801 15L69.4801 8L69.5 8.07409L69.5199 8L95.5199 15L97 15.3985V16.9312V16.9694V17.0078V17.0464V17.0851V17.1241V17.1633V17.2026V17.2422V17.2819V17.3218V17.3619V17.4022V17.4427V17.4834V17.5243V17.5653V17.6066V17.648V17.6896V17.7314V17.7734V17.8155V17.8579V17.9004V17.9431V17.986V18.0291V18.0723V18.1157V18.1593V18.2031V18.247V18.2911V18.3354V18.3799V18.4246V18.4694V18.5144V18.5595V18.6048V18.6503V18.696V18.7418V18.7878V18.834V18.8803V18.9268V18.9735V19.0203V19.0673V19.1145V19.1618V19.2093V19.2569V19.3047V19.3527V19.4008V19.4491V19.4975V19.5461V19.5948V19.6437V19.6928V19.742V19.7913V19.8408V19.8905V19.9403V19.9903V20.0404V20.0907V20.1411V20.1916V20.2423V20.2932V20.3442V20.3953V20.4466V20.4981V20.5496V20.6013V20.6532V20.7052V20.7573V20.8096V20.862V20.9146V20.9673V21.0201V21.0731V21.1262V21.1794V21.2328V21.2863V21.3399V21.3937V21.4476V21.5016V21.5557V21.61V21.6644V21.719V21.7736V21.8284V21.8834V21.9384V21.9936V22.0489V22.1043V22.1598V22.2155V22.2713V22.3272V22.3832V22.4393V22.4956V22.552V22.6085V22.6651V22.7218V22.7786V22.8356V22.8927V22.9498V23.0071V23.0645V23.122V23.1797V23.2374V23.2952V23.3532V23.4112V23.4694V23.5277V23.5861V23.6445V23.7031V23.7618V23.8206V23.8795V23.9385V23.9976V24.0568V24.116V24.1754V24.2349V24.2945V24.3542V24.414V24.4738V24.5338V24.5938V24.654V24.7142V24.7746V24.835V24.8955V24.9561V25.0168V25.0776V25.1385V25.1994V25.2605V25.3216V25.3828V25.4441V25.5055V25.5669V25.6285V25.6901V25.7518V25.8136V25.8755V25.9374V25.9994V26.0615V26.1237V26.1859V26.2483V26.3107V26.3731V26.4357V26.4983V26.561V26.6238V26.6866V26.7495V26.8125V26.8755V26.9386V27.0018V27.065V27.1283V27.1917V27.2551V27.3186V27.3822V27.4458V27.5095V27.5732V27.637V27.7009V27.7648V27.8288V27.8928V27.9569V28.0211V28.0853V28.1496V28.2139V28.2782V28.3427V28.4071V28.4716V28.5362V28.6008V28.6655V28.7302V28.795V28.8598V28.9247V28.9896V29.0545V29.1195V29.1846V29.2497V29.3148V29.38V29.4452V29.5104V29.5757V29.641V29.7064V29.7718V29.8372V29.9027V29.9682V30.0338V30.0993V30.165V30.2306V30.2963V30.362V30.4277V30.4935V30.5593V30.6251V30.691V30.7569V30.8228V30.8887V30.9547V31.0206V31.0866V31.1527V31.2187V31.2848V31.3509V31.417V31.4832V31.5493V31.6155V31.6817V31.7479V31.8141V31.8803V31.9466V32.0129V32.0792V32.1455V32.2118V32.2781V32.3444V32.4108V32.4771V32.5435V32.6098V32.6762V32.7426V32.809V32.8754V32.9418V33.0082V33.0746V33.141V33.2074V33.2738V33.3402V33.4066V33.473V33.5394V33.6058V33.6722V33.7386V33.805V33.8714V33.9378V34.0042V34.0705V34.1369V34.2033V34.2696V34.3359V34.4023V34.4686V34.5349V34.6012V34.6675V34.7337V34.8V34.8662V34.9324V34.9986V35.0648V35.131V35.1971V35.2632V35.3293V35.3954V35.4615V35.5275V35.5936V35.6596V35.7255V35.7915V35.8574V35.9233V35.9892V36.055V36.1208V36.1866V36.2524V36.3181V36.3838V36.4495V36.5151V36.5807V36.6463V36.7118V36.7773V36.8428V36.9082V36.9736V37.0389V37.1042V37.1695V37.2347V37.2999V37.3651V37.4302V37.4952V37.5603V37.6252V37.6902V37.7551V37.8199V37.8847V37.9494V38.0141V38.0788V38.1434V38.208V38.2725V38.3369V38.4013V38.4656V38.5299V38.5942V38.6584V38.7225V38.7866V38.8506V38.9145V38.9784V39.0423V39.106V39.1698V39.2334V39.297V39.3605V39.424V39.4874V39.5508V39.614V39.6773V39.7404V39.8035V39.8665V39.9294V39.9923V40.0551V40.1178V40.1805V40.2431V40.3056V40.368V40.4304V40.4927V40.5549V40.6171V40.6791V40.7411V40.803V40.8649V40.9266V40.9883V41.0499V41.1114V41.1728V41.2342V41.2954V41.3566V41.4177V41.4787V41.5396V41.6004V41.6612V41.7218V41.7824V41.8429V41.9033V41.9636V42.0238V42.0839V42.1439V42.2038V42.2637V42.3234V42.383V42.4426V42.502V42.5614V42.6206V42.6798V42.7388V42.7978V42.8566V42.9154V42.974V43.0325V43.091V43.1493V43.2075V43.2657V43.3237V43.3816V43.4394V43.4971V43.5546V43.6121V43.6695V43.7267V43.7838V43.8409V43.8978V43.9545V44.0112V44.0678V44.1242V44.1806V44.2368V44.2929V44.3488V44.4047V44.4604V44.516V44.5715V44.6269V44.6821V44.7372V44.7922V44.8471V44.9018V44.9565V45.0109V45.0653V45.1195V45.1736V45.2276V45.2815V45.3352V45.3887V45.4422V45.4955V45.5487V45.6017V45.6546V45.7074V45.76V45.8125V45.8649V45.9171V45.9692V46.0211V46.0729V46.1246V46.1761V46.2275V46.2787V46.3298V46.3807V46.4315V46.4821V46.5326V46.583V46.6332V46.6832V46.7331V46.7829V46.8325V46.8819V46.9312C97 49.7191 95.5851 52.2642 93.6885 54.444C91.7734 56.6451 89.185 58.6861 86.4081 60.5044C80.8475 64.1457 74.2017 67.106 69.7061 68.8024L69.5 68.2562L69.2939 68.8024C64.7983 67.106 58.1525 64.1457 52.5919 60.5044C49.815 58.6861 47.2266 56.6451 45.3115 54.444C43.4149 52.2642 42 49.7191 42 46.9312V46.8819V46.8325V46.7829V46.7331V46.6832V46.6332V46.583V46.5326V46.4821V46.4315V46.3807V46.3298V46.2787V46.2275V46.1761V46.1246V46.0729V46.0211V45.9692V45.9171V45.8649V45.8125V45.76V45.7074V45.6546V45.6017V45.5487V45.4955V45.4422V45.3887V45.3352V45.2815V45.2276V45.1736V45.1195V45.0653V45.0109V44.9565V44.9018V44.8471V44.7922V44.7372V44.6821V44.6269V44.5715V44.516V44.4604V44.4047V44.3488V44.2929V44.2368V44.1806V44.1242V44.0678V44.0112V43.9545V43.8978V43.8409V43.7838V43.7267V43.6695V43.6121V43.5546V43.4971V43.4394V43.3816V43.3237V43.2657V43.2075V43.1493V43.091V43.0325V42.974V42.9154V42.8566V42.7978V42.7388V42.6798V42.6206V42.5614V42.502V42.4426V42.383V42.3234V42.2637V42.2038V42.1439V42.0839V42.0238V41.9636V41.9033V41.8429V41.7824V41.7218V41.6612V41.6004V41.5396V41.4787V41.4177V41.3566V41.2954V41.2342V41.1728V41.1114V41.0499V40.9883V40.9266V40.8649V40.803V40.7411V40.6791V40.6171V40.5549V40.4927V40.4304V40.368V40.3056V40.2431V40.1805V40.1178V40.0551V39.9923V39.9294V39.8665V39.8035V39.7404V39.6773V39.614V39.5508V39.4874V39.424V39.3605V39.297V39.2334V39.1698V39.106V39.0423V38.9784V38.9145V38.8506V38.7866V38.7225V38.6584V38.5942V38.5299V38.4656V38.4013V38.3369V38.2725V38.208V38.1434V38.0788V38.0141V37.9494V37.8847V37.8199V37.7551V37.6902V37.6252V37.5603V37.4952V37.4302V37.3651V37.2999V37.2347V37.1695V37.1042V37.0389V36.9736V36.9082V36.8428V36.7773V36.7118V36.6463V36.5807V36.5151V36.4495V36.3838V36.3181V36.2524V36.1866V36.1208V36.055V35.9892V35.9233V35.8574V35.7915V35.7255V35.6596V35.5936V35.5275V35.4615V35.3954V35.3293V35.2632V35.1971V35.131V35.0648V34.9986V34.9324V34.8662V34.8V34.7337V34.6675V34.6012V34.5349V34.4686V34.4023V34.3359V34.2696V34.2033V34.1369V34.0705V34.0042V33.9378V33.8714V33.805V33.7386V33.6722V33.6058V33.5394V33.473V33.4066V33.3402V33.2738V33.2074V33.141V33.0746V33.0082V32.9418V32.8754V32.809V32.7426V32.6762V32.6098V32.5435V32.4771V32.4108V32.3444V32.2781V32.2118V32.1455V32.0792V32.0129V31.9466V31.8803V31.8141V31.7479V31.6817V31.6155V31.5493V31.4832V31.417V31.3509V31.2848V31.2187V31.1527V31.0866V31.0206V30.9547V30.8887V30.8228V30.7569V30.691V30.6251V30.5593V30.4935V30.4277V30.362V30.2963V30.2306V30.165V30.0993V30.0338V29.9682V29.9027V29.8372V29.7718V29.7064V29.641V29.5757V29.5104V29.4452V29.38V29.3148V29.2497V29.1846V29.1195V29.0545V28.9896V28.9247V28.8598V28.795V28.7302V28.6655V28.6008V28.5362V28.4716V28.4071V28.3427V28.2782V28.2139V28.1496V28.0853V28.0211V27.9569V27.8928V27.8288V27.7648V27.7009V27.637V27.5732V27.5095V27.4458V27.3822V27.3186V27.2551V27.1917V27.1283V27.065V27.0018V26.9386V26.8755V26.8125V26.7495V26.6866V26.6238V26.561V26.4983V26.4357V26.3731V26.3107V26.2483V26.1859V26.1237V26.0615V25.9994V25.9374V25.8755V25.8136V25.7518V25.6901V25.6285V25.5669V25.5055V25.4441V25.3828V25.3216V25.2605V25.1994V25.1385V25.0776V25.0168V24.9561V24.8955V24.835V24.7746V24.7142V24.654V24.5938V24.5338V24.4738V24.414V24.3542V24.2945V24.2349V24.1754V24.116V24.0568V23.9976V23.9385V23.8795V23.8206V23.7618V23.7031V23.6445V23.5861V23.5277V23.4694V23.4112V23.3532V23.2952V23.2374V23.1797V23.122V23.0645V23.0071V22.9498V22.8927V22.8356V22.7786V22.7218V22.6651V22.6085V22.552V22.4956V22.4393V22.3832V22.3272V22.2713V22.2155V22.1598V22.1043V22.0489V21.9936V21.9384V21.8834V21.8284V21.7736V21.719V21.6644V21.61V21.5557V21.5016V21.4476V21.3937V21.3399V21.2863V21.2328V21.1794V21.1262V21.0731V21.0201V20.9673V20.9146V20.862V20.8096V20.7573V20.7052V20.6532V20.6013V20.5496V20.4981V20.4466V20.3953V20.3442V20.2932V20.2423V20.1916V20.1411V20.0907V20.0404V19.9903V19.9403V19.8905V19.8408V19.7913V19.742V19.6928V19.6437V19.5948V19.5461V19.4975V19.4491V19.4008V19.3527V19.3047V19.2569V19.2093V19.1618V19.1145V19.0673V19.0203V18.9735V18.9268V18.8803V18.834V18.7878V18.7418V18.696V18.6503V18.6048V18.5595V18.5144V18.4694V18.4246V18.3799V18.3354V18.2911V18.247V18.2031V18.1593V18.1157V18.0723V18.0291V17.986V17.9431V17.9004V17.8579V17.8155V17.7734V17.7314V17.6896V17.648V17.6066V17.5653V17.5243V17.4834V17.4427V17.4022V17.3619V17.3218V17.2819V17.2422V17.2026V17.1633V17.1241V17.0851V17.0464V17.0078V16.9694V16.9312V15.3985L43.4801 15Z" fill="#FF5146"/>
<path fill-rule="evenodd" clip-rule="evenodd" d="M56.4801 18L56.5 18.0741L56.5199 18L84 25.3985V56.9312C84 59.7191 82.5851 62.2642 80.6885 64.444C78.7734 66.6451 76.185 68.6861 73.4081 70.5044C67.8475 74.1457 61.2017 77.106 56.7061 78.8024L56.5 78.2562L56.2939 78.8024C51.7983 77.106 45.1525 74.1457 39.5919 70.5044C36.815 68.6861 34.2266 66.6451 32.3115 64.444C30.4149 62.2642 29 59.7191 29 56.9312V25.3985L56.4801 18ZM56.4853 26L56.5 26.0546L56.5147 26L76.7635 31.4516V54.6866C76.7635 56.7408 75.7209 58.6162 74.3234 60.2224C72.9123 61.8443 71.005 63.3482 68.9588 64.688C64.8614 67.3711 59.9645 69.5524 56.6519 70.8025L56.5 70.4L56.3482 70.8025C53.0355 69.5524 48.1386 67.3711 44.0412 64.688C41.9951 63.3482 40.0878 61.8443 38.6766 60.2224C37.2791 58.6162 36.2366 56.7408 36.2366 54.6866V31.4516L56.4853 26Z" fill="#FF5146"/>
<defs>
<radialGradient id="paint0_radial_351_2002" cx="0" cy="0" r="1" gradientUnits="userSpaceOnUse" gradientTransform="translate(80.2632 58.2866) rotate(89.7837) scale(62.7139 77.7885)">
<stop stop-color="#E44A42"/>
<stop offset="1" stop-color="#E44A42" stop-opacity="0"/>
</radialGradient>
</defs>
</svg>
